# xmcd CD database file
#
# Track frame offsets:
#	150
#	10926
#	24309
#	40726
#	52857
#	77846
#	85710
#	94892
#	115931
#	128865
#	153119
#	164998
#	178239
#	189038
#	201207
#	212774
#	226270
#	236947
#	251806
#	260357
#	281966
#	294483
#	303669
#	314498
#
# Disc length: 4351 seconds
#
# Revision: 2
# Processed by: cddbd v1.4PL0 Copyright (c) Steve Scherf et al.
# Submitted via: CDex 1.40Beta8
#
DISCID=5410fd18
DTITLE=Filip, Lasica and Satinsky - Piesne 1981-1990 CD1
DYEAR=1900
DGENRE=Blues
TTITLE0=Chcel by som byt ...
TTITLE1=Spomiman na Pariz
TTITLE2=Jezibaby
TTITLE3=Na vystave
TTITLE4=V jedalnom vozni
TTITLE5=Ach, to by boli vojny malebne
TTITLE6=V nasej obci
TTITLE7=Za dedinou ...
TTITLE8=Jano bol chlap ...
TTITLE9=Vyletel vtak ...
TTITLE10=Ked so isiel ...
TTITLE11=Do batozka
TTITLE12=Pekne vitam
TTITLE13=Fair play
TTITLE14=Smola
TTITLE15=Zazrak
TTITLE16=Priatelovi
TTITLE17=Peniaze
TTITLE18=Majstrovstva
TTITLE19=Rozpacite blues
TTITLE20=Bicykel
TTITLE21=Rotschild
TTITLE22=Clivota
TTITLE23=Ceresne
EXTD=Bolo nas 11  1-12, S vetrom o preteky  13-24 ID3G: 0
EXTT0=
EXTT1=
EXTT2=
EXTT3=
EXTT4=
EXTT5=
EXTT6=
EXTT7=
EXTT8=
EXTT9=
EXTT10=
EXTT11=
EXTT12=
EXTT13=
EXTT14=
EXTT15=
EXTT16=
EXTT17=
EXTT18=
EXTT19=
EXTT20=
EXTT21=
EXTT22=
EXTT23=
PLAYORDER=
